<svg xmlns="http://www.w3.org/2000/svg" width="48" height="49" viewBox="0 0 48 49" fill="none">
  <path d="M31.7278 16.0641C22.9101 16.1467 15.7387 23.1397 15.2934 31.9153C7.05412 31.4856 0.5 24.6249 0.5 16.2183C0.5 7.53429 7.49378 0.5 16.1143 0.5C24.6837 0.5 31.6456 7.45118 31.7278 16.0641ZM31.8857 48.5C23.3163 48.5 16.3544 41.5488 16.2722 32.9359C25.0899 32.8533 32.2613 25.8603 32.7066 17.0847C40.9459 17.5144 47.5 24.3751 47.5 32.7817C47.5 41.4657 40.5062 48.5 31.8857 48.5ZM16.2937 31.9356C16.7272 23.7048 23.4494 17.158 31.7063 17.0644C31.2728 25.2952 24.5506 31.842 16.2937 31.9356Z" stroke="#ff6633"/>
</svg>
